<svg xmlns="http://www.w3.org/2000/svg" viewBox="0 0 24 24">
  <path fill-rule="evenodd" clip-rule="evenodd" d="M10.62 2h2.76c.64 0 1.18.45 1.31 1.07l.35 1.68c.47.19.92.45 1.33.77l1.64-.54c.6-.2 1.26.06 1.58.61l1.38 2.39c.32.55.21 1.25-.26 1.67l-1.29 1.15c.04.27.06.55.06.84s-.02.57-.06.84l1.29 1.15c.47.42.58 1.12.26 1.67l-1.38 2.39c-.32.55-.98.81-1.58.61l-1.64-.54c-.41.32-.86.58-1.33.77l-.35 1.68c-.13.62-.67 1.07-1.31 1.07h-2.76c-.64 0-1.18-.45-1.31-1.07l-.35-1.68a6.64 6.64 0 0 1-1.33-.77l-1.64.54c-.6.2-1.26-.06-1.58-.61L3.03 15.3a1.34 1.34 0 0 1 .26-1.67l1.29-1.15a5.8 5.8 0 0 1-.06-.84c0-.29.02-.57.06-.84L3.29 9.65a1.34 1.34 0 0 1-.26-1.67l1.38-2.39c.32-.55.98-.81 1.58-.61l1.64.54c.41-.32.86-.58 1.33-.77l.35-1.68C9.44 2.45 9.98 2 10.62 2ZM12 15.5a3.5 3.5 0 1 0 0-7 3.5 3.5 0 0 0 0 7Z"/>
</svg>
